# xmcd CD database file generated by Grip 2.95
# 
# Track frame offsets:
#       150
#       13302
#       25294
#       36841
#       51651
#       65065
#       80870
#       94348
#       111925
#       124683
#       137360
#       154953
# 
# Disc length: 2235 seconds
# 
# Revision: 3
# Processed by: cddbd v1.4PL0 Copyright (c) Steve Scherf et al.
# Submitted via: Grip 2.95
# 
DISCID=b008b90c
DTITLE=Percy Sledge - When A Man Loves A Woman
DYEAR=1900
DGENRE=
TTITLE0=When A Man Loves A Woman
TTITLE1=Tell it Like it is
TTITLE2=(Sittin on) The Dock of the Bay
TTITLE3=Warm and Tender Love
TTITLE4=I've Been Lovin You Too Long
TTITLE5=Bring it on Home to Me
TTITLE6=Take Time to Know Her
TTITLE7=Try A Little Tenderness
TTITLE8=It Tears Me Up
TTITLE9=Behind Closed Doors
TTITLE10=If Lovin You is Wrong (I Dont Want To Be Right)
TTITLE11=Cover Me
EXTD=
EXTT0=
EXTT1=
EXTT2=
EXTT3=
EXTT4=
EXTT5=
EXTT6=
EXTT7=
EXTT8=
EXTT9=
EXTT10=
EXTT11=
PLAYORDER=
